<?xml version="1.0" encoding="UTF-8" standalone="no"?>
<!DOCTYPE svg PUBLIC "-//W3C//DTD SVG 1.1//EN" "http://www.w3.org/Graphics/SVG/1.1/DTD/svg11.dtd">
<svg xmlns="http://www.w3.org/2000/svg" version="1.1" viewBox="0.00 0.00 313.00 509.00">
<path fill="#ffffff" d="
  M 242.23 0.00
  L 242.84 0.00
  C 309.12 98.21 309.28 223.39 244.16 322.13
  Q 243.60 322.97 243.25 323.19
  Q 242.15 323.91 241.42 322.82
  C 176.04 225.18 174.85 96.79 242.23 0.00
  Z
  M 241.29 78.44
  Q 242.41 76.29 243.52 78.45
  Q 273.62 136.68 275.58 202.01
  Q 275.67 204.88 276.26 207.42
  A 0.86 0.86 0.0 0 0 277.85 207.64
  Q 278.31 206.80 278.46 205.52
  Q 289.84 111.31 243.95 29.77
  A 1.87 1.87 0.0 0 0 240.68 29.79
  C 210.67 85.00 199.86 146.30 206.98 208.85
  A 0.31 0.31 0.0 0 0 207.59 208.84
  Q 209.05 192.20 211.20 175.27
  Q 217.77 123.52 241.29 78.44
  Z
  M 243.72 198.66
  Q 242.72 197.68 241.83 198.33
  Q 241.14 198.83 241.04 199.05
  Q 216.30 253.30 241.30 307.36
  A 1.21 1.21 0.0 0 0 243.49 307.37
  C 259.85 272.94 259.97 233.72 243.87 198.87
  A 0.86 0.73 -85.3 0 0 243.72 198.66
  Z"
/>
<path fill="#ffffff" d="
  M 208.31 509.00
  L 149.57 509.00
  C 16.57 486.03 -43.73 332.73 38.80 225.36
  C 71.65 182.61 119.27 161.04 172.50 156.52
  C 178.31 156.02 178.50 158.93 178.50 163.79
  Q 178.50 226.86 178.50 289.51
  A 1.34 1.34 0.0 0 1 177.21 290.85
  C 111.24 293.22 63.54 356.64 84.75 420.25
  C 104.77 480.24 174.20 506.83 229.36 474.41
  C 249.69 462.46 265.35 442.82 263.08 418.07
  Q 260.99 395.41 240.44 383.51
  C 221.41 372.49 196.72 375.14 179.43 388.70
  A 0.89 0.88 71.0 0 1 178.00 388.00
  L 178.00 335.25
  A 1.50 1.50 0.0 0 1 179.50 333.75
  L 306.26 333.75
  A 1.98 1.98 0.0 0 1 308.24 335.73
  Q 308.26 393.93 308.19 451.25
  Q 308.18 452.97 307.94 454.66
  A 1.64 1.56 72.7 0 1 307.51 455.53
  Q 266.50 498.47 208.31 509.00
  Z"
/>
</svg>
