<svg viewBox="0 0 16 16" version="1.1" xmlns="http://www.w3.org/2000/svg"><path d="M8,14.95 C4.16162099,14.95 1.05,11.838379 1.05,8 C1.05,4.16162099 4.16162099,1.05 8,1.05 C11.838379,1.05 14.95,4.16162099 14.95,8 C14.95,11.838379 11.838379,14.95 8,14.95 Z M8,13.55 C11.0651804,13.55 13.55,11.0651804 13.55,8 C13.55,4.93481964 11.0651804,2.45 8,2.45 C4.93481964,2.45 2.45,4.93481964 2.45,8 C2.45,11.0651804 4.93481964,13.55 8,13.55 Z M11.415092,9.63185529 L10.6952596,10.8326222 L7.10000019,8.67734615 L7.10000019,4.30000019 L8.50000019,4.30000019 L8.50000019,7.88432416 L11.415092,9.63185529 Z"></path></svg>