<svg viewBox="0 0 16 16" version="1.1" xmlns="http://www.w3.org/2000/svg"><path d="M2.14892958,2.79827372 C2.27587665,2.22620395 2.60431846,1.80936359 3.05478267,1.55798801 C3.40308214,1.36362411 3.73913101,1.30059894 4.00174681,1.30000218 L13.9033353,1.32471115 L13.9033353,13 L12.5033353,13 L12.5033353,2.72122126 L4.00161214,2.69999814 C3.95881453,2.70009671 3.8417817,2.72204594 3.73699947,2.78051827 C3.62409368,2.84352385 3.55289129,2.93389002 3.51456027,3.10653799 C3.45550296,3.36380264 3.59042306,3.52069404 3.75422601,3.59409974 L10.9057364,5.08777191 L10.8680826,15.236669 L2.09999995,13.2521888 L2.09999995,3.3481069 C2.0959252,3.27889662 2.0958667,3.20830087 2.09999995,3.13641889 C2.10815011,3.01395067 2.12390029,2.90729248 2.14892958,2.79827372 Z M3.49999995,4.97121193 L3.49999995,12.1336409 L9.47456872,13.4858651 L9.50150864,6.22469351 L3.49999995,4.97121193 Z"></path></svg>